<svg width="647" height="164" viewBox="0 0 647 164" fill="none" xmlns="http://www.w3.org/2000/svg">
<path d="M92.5322 93.6998C110.608 93.6998 125.829 108.198 127.029 127.046C127.114 128.37 128.181 129.449 129.507 129.449H146.211C147.537 129.449 148.617 128.371 148.563 127.045C147.332 96.7765 122.961 72.1932 92.5322 72.1932C92.3092 72.1932 92.0865 72.1945 91.8642 72.1972C53.8715 71.8408 22.7877 41.0763 21.5452 2.40616C21.5026 1.08056 20.4314 0 19.1051 0H2.40144C1.07516 0 -0.0031094 1.07875 0.0299326 2.40462C0.94696 39.2019 22.851 70.8465 54.1859 85.3129C54.9831 85.681 55.1525 86.7525 54.5138 87.355C43.9197 97.3484 37.1352 111.442 36.501 127.047C36.4472 128.372 37.5274 129.449 38.8537 129.449H55.5574C56.8837 129.449 57.9508 128.37 58.035 127.046C59.222 108.404 74.1248 94.0179 91.9393 93.705C92.1365 93.7062 92.3338 93.7069 92.5313 93.7069L92.5322 93.6998Z" fill="#12DAC2"/>
<path d="M169.395 52.1863C168.977 52.8175 168.084 52.8938 167.548 52.359C163.057 47.8785 158.175 43.7965 152.958 40.1701C152.422 39.798 152.274 39.0695 152.618 38.5159C159.151 28.0097 163.092 15.6696 163.518 2.40159C163.56 1.07599 164.631 0 165.957 0H182.661C183.987 0 185.066 1.07617 185.033 2.40204C184.575 20.7871 178.881 37.8829 169.395 52.1863Z" fill="#12DAC2"/>
<path d="M92.5318 35.7489C74.4565 35.7484 59.2356 21.2506 58.0355 2.40231C57.9513 1.07871 56.8842 0 55.5579 0H38.8542C37.5279 0 36.4477 1.07805 36.5016 2.40323C37.7324 32.6719 62.1037 57.255 92.5318 57.2555C130.827 57.2555 162.268 88.1534 163.518 127.05C163.561 128.375 164.632 129.456 165.958 129.456H182.662C183.988 129.456 185.066 128.377 185.033 127.051C184.116 90.2524 162.21 58.6068 130.873 44.1411C130.076 43.7731 129.907 42.7014 130.546 42.0989C141.143 32.1052 147.93 18.0093 148.564 2.40196C148.618 1.07678 147.537 0 146.211 0H129.507C128.181 0 127.114 1.07871 127.03 2.40231C125.83 21.2509 110.607 35.7489 92.5318 35.7489Z" fill="#30F099"/>
<path d="M15.6676 77.2695C16.0862 76.6383 16.9787 76.5619 17.5149 77.0968C22.0061 81.5773 26.8881 85.6593 32.1055 89.2857C32.6408 89.6577 32.789 90.3863 32.4447 90.9399C25.9117 101.446 21.9713 113.786 21.5455 127.054C21.503 128.38 20.4319 129.456 19.1056 129.456H2.40193C1.07565 129.456 -0.00264868 128.38 0.0303463 127.054C0.487868 108.669 6.18245 91.5729 15.6676 77.2695Z" fill="#30F099"/>
<path d="M213.396 163.771C212.108 163.771 211.063 162.727 211.063 161.438V41.3597C211.063 40.071 212.108 39.0264 213.396 39.0264H229.007C230.121 39.0264 231.08 39.8147 231.296 40.9083L232.33 46.1544C232.724 48.152 235.392 48.7797 236.82 47.3284C238.981 45.1319 241.488 43.1195 244.34 41.2913C248.986 38.3876 254.968 36.9357 262.285 36.9357C270.416 36.9357 277.675 38.9102 284.063 42.8593C290.452 46.8084 295.504 52.2094 299.221 59.0623C302.938 65.9151 304.796 73.6972 304.796 82.4084C304.796 91.1197 302.938 98.9017 299.221 105.755C295.504 112.491 290.452 117.834 284.063 121.783C277.675 125.616 270.416 127.533 262.285 127.533C255.781 127.533 250.089 126.313 245.211 123.874C242.664 122.6 240.37 121.058 238.33 119.246C236.615 117.723 233.364 118.843 233.364 121.137V161.438C233.364 162.727 232.319 163.771 231.031 163.771H213.396ZM257.581 108.019C264.666 108.019 270.532 105.638 275.178 100.876C279.824 96.1141 282.147 89.9582 282.147 82.4084C282.147 74.8587 279.824 68.6446 275.178 63.7663C270.532 58.888 264.666 56.4489 257.581 56.4489C250.38 56.4489 244.456 58.888 239.81 63.7663C235.28 68.5285 233.015 74.6844 233.015 82.2342C233.015 89.7839 235.28 95.998 239.81 100.876C244.456 105.638 250.38 108.019 257.581 108.019Z" fill="white"/>
<path d="M327.051 125.442C325.762 125.442 324.718 124.397 324.718 123.109V2.33329C324.718 1.04465 325.762 0 327.051 0H344.685C345.974 0 347.018 1.04465 347.018 2.33328V123.109C347.018 124.397 345.974 125.442 344.685 125.442H327.051Z" fill="white"/>
<path d="M411.793 127.533C403.082 127.533 395.358 125.674 388.621 121.957C381.885 118.241 376.6 113.014 372.767 106.277C368.934 99.5405 367.018 91.7585 367.018 82.9311C367.018 73.9875 368.876 66.0313 372.593 59.0623C376.426 52.0933 381.652 46.6923 388.273 42.8593C395.01 38.9102 402.908 36.9357 411.968 36.9357C420.446 36.9357 427.938 38.7941 434.443 42.5109C440.947 46.2277 446 51.3383 449.6 57.8427C453.317 64.2309 455.175 71.3742 455.175 79.2724C455.175 80.55 455.117 81.8857 455.001 83.2795C455.001 83.9971 454.986 84.73 454.955 85.4783C454.905 86.6965 453.885 87.6352 452.666 87.6352H391.644C390.292 87.6352 389.213 88.7828 389.409 90.1204C390.226 95.6848 392.46 100.141 396.113 103.49C400.411 107.323 405.579 109.239 411.619 109.239C416.149 109.239 419.924 108.252 422.944 106.277C425.643 104.478 427.74 102.248 429.234 99.5883C429.679 98.7965 430.494 98.2629 431.402 98.2629H449.432C450.993 98.2629 452.114 99.7677 451.554 101.225C449.896 105.542 447.502 109.549 444.373 113.246C440.657 117.66 436.011 121.144 430.435 123.7C424.976 126.255 418.762 127.533 411.793 127.533ZM411.968 55.0551C406.508 55.0551 401.688 56.6231 397.507 59.7592C393.958 62.3226 391.496 66.0576 390.123 70.9643C389.73 72.3691 390.839 73.6972 392.298 73.6972H430.046C431.39 73.6972 432.47 72.5594 432.255 71.2321C431.516 66.6826 429.516 62.9744 426.254 60.1076C422.421 56.7393 417.659 55.0551 411.968 55.0551Z" fill="white"/>
<path d="M464.365 125.442C462.459 125.442 461.357 123.281 462.476 121.738L490.154 83.6047C490.747 82.7873 490.747 81.681 490.154 80.8636L462.476 42.7302C461.357 41.1878 462.459 39.0264 464.365 39.0264H482.458C483.211 39.0264 483.917 39.3895 484.355 40.0014L503.705 67.0293C504.638 68.3324 506.576 68.3288 507.504 67.0222L526.69 40.0086C527.128 39.3924 527.836 39.0264 528.592 39.0264H546.839C548.748 39.0264 549.849 41.1934 548.724 42.7352L520.9 80.8587C520.302 81.6782 520.302 82.7902 520.9 83.6097L548.724 121.733C549.849 123.275 548.748 125.442 546.839 125.442H528.592C527.836 125.442 527.128 125.076 526.69 124.46L507.504 97.4462C506.576 96.1396 504.638 96.136 503.705 97.439L484.355 124.467C483.917 125.079 483.211 125.442 482.458 125.442H464.365Z" fill="white"/>
<path d="M602.51 127.533C594.147 127.533 586.597 125.616 579.861 121.783C573.24 117.95 567.955 112.665 564.006 105.929C560.173 99.0759 558.257 91.1777 558.257 82.2342C558.257 73.2906 560.231 65.4505 564.18 58.7138C568.129 51.861 573.414 46.5181 580.035 42.6851C586.771 38.8522 594.321 36.9357 602.684 36.9357C610.931 36.9357 618.364 38.8522 624.985 42.6851C631.722 46.5181 637.006 51.861 640.839 58.7138C644.788 65.4505 646.763 73.2906 646.763 82.2342C646.763 91.1777 644.788 99.0759 640.839 105.929C637.006 112.665 631.722 117.95 624.985 121.783C618.248 125.616 610.756 127.533 602.51 127.533ZM602.51 108.194C608.317 108.194 613.37 106.045 617.667 101.747C621.965 97.3337 624.114 90.8293 624.114 82.2342C624.114 73.6391 621.965 67.1928 617.667 62.8952C613.37 58.4815 608.375 56.2747 602.684 56.2747C596.76 56.2747 591.65 58.4815 587.352 62.8952C583.171 67.1928 581.08 73.6391 581.08 82.2342C581.08 90.8293 583.171 97.3337 587.352 101.747C591.65 106.045 596.702 108.194 602.51 108.194Z" fill="white"/>
</svg>